<svg width="1246" height="420" viewBox="0 0 1246 420" fill="none" xmlns="http://www.w3.org/2000/svg">
<path d="M1245.67 416.5C1245.67 415.027 1244.47 413.833 1243 413.833C1241.53 413.833 1240.33 415.027 1240.33 416.5C1240.33 417.973 1241.53 419.167 1243 419.167C1244.47 419.167 1245.67 417.973 1245.67 416.5ZM1243 86.0001L1243.5 86.0001L1243.5 85.5001L1243 85.5001L1243 86.0001ZM3.00003 86L2.50003 86L2.50003 86.5L3.00003 86.5L3.00003 86ZM5.66667 -106C5.66667 -107.473 4.47282 -108.667 3.00005 -108.667C1.52727 -108.667 0.33342 -107.473 0.33342 -106C0.33342 -104.527 1.52727 -103.333 3.00005 -103.333C4.47282 -103.333 5.66667 -104.527 5.66667 -106ZM1243.5 416.5L1243.5 86.0001L1242.5 86.0001L1242.5 416.5L1243.5 416.5ZM1243 85.5001L3.00003 85.5L3.00003 86.5L1243 86.5001L1243 85.5001ZM3.50003 86L3.50005 -106L2.50005 -106L2.50003 86L3.50003 86Z" fill="url(#paint0_linear_1_1363)"/>
<defs>
<linearGradient id="paint0_linear_1_1363" x1="1243" y1="158" x2="3.00001" y2="158" gradientUnits="userSpaceOnUse">
<stop stop-color="#055042"/>
<stop offset="1" stop-color="#0BB696"/>
</linearGradient>
</defs>
</svg>
