<svg width="48" height="47" viewBox="0 0 48 47" fill="none" xmlns="http://www.w3.org/2000/svg"><path fill-rule="evenodd" clip-rule="evenodd" d="M.867 22.754a23.166 23.166 0 0 1 1.827-.103c12.61-.22 23.014 9.796 23.273 22.386-.603.058-1.212.093-1.827.104-12.61.22-23.014-9.796-23.273-22.387ZM.867 2.18a23.21 23.21 0 0 1 1.827-.105c12.61-.22 23.014 9.797 23.273 22.387-.603.058-1.212.093-1.827.104-12.61.22-23.014-9.797-23.273-22.387Z" fill="#7C7C7C"/><path fill-rule="evenodd" clip-rule="evenodd" d="M22.981 44.997a22.79 22.79 0 0 0 16.658-5.136c5.376-4.44 8.203-10.82 8.303-17.284a22.79 22.79 0 0 0-16.658 5.137c-5.375 4.439-8.202 10.82-8.303 17.283ZM22.981 24.422a22.79 22.79 0 0 0 16.658-5.136c5.376-4.44 8.203-10.82 8.303-17.284A22.79 22.79 0 0 0 31.284 7.14c-5.375 4.439-8.202 10.82-8.303 17.283Z" fill="#7C7C7C"/></svg>