<svg xmlns="http://www.w3.org/2000/svg" width="20" height="20" fill="none"><mask id="a" width="20" height="16" x="0" y="2" maskUnits="userSpaceOnUse" style="mask-type:luminance"><path fill="#fff" d="M18.571 2.857H1.43C.639 2.857 0 3.497 0 4.286v11.429c0 .788.64 1.428 1.429 1.428H18.57c.79 0 1.429-.64 1.429-1.428V4.286c0-.789-.64-1.429-1.429-1.429Z"/></mask><g mask="url(#a)"><path fill="#fff" stroke="#F5F5F5" stroke-width=".357" d="M18.569 3.036H1.426c-.69 0-1.25.56-1.25 1.25v11.429c0 .69.56 1.25 1.25 1.25h17.143c.69 0 1.25-.56 1.25-1.25V4.286c0-.69-.56-1.25-1.25-1.25Z"/><mask id="b" width="21" height="16" x="-1" y="2" maskUnits="userSpaceOnUse" style="mask-type:alpha"><path fill="#fff" stroke="#fff" stroke-width=".357" d="M18.559 3.036H1.416c-.69 0-1.25.56-1.25 1.25v11.429c0 .69.56 1.25 1.25 1.25h17.143c.69 0 1.25-.56 1.25-1.25V4.286c0-.69-.56-1.25-1.25-1.25Z"/></mask><g fill-rule="evenodd" clip-rule="evenodd" mask="url(#b)"><path fill="#0C47B7" d="M-.003 12.381h20V7.619h-20v4.762Z"/><path fill="#E53B35" d="M-.003 17.143h20V12.38h-20v4.762Z"/></g></g></svg>