<svg width="410" height="415" viewBox="0 0 410 415" fill="none" xmlns="http://www.w3.org/2000/svg">
<g clip-path="url(#clip0_1_2309)">
<rect width="408.861" height="511.076" transform="translate(0.484375 0.0117188)" fill="#00161D"/>
<rect x="0.484375" y="302.115" width="408.861" height="208.973" fill="url(#paint0_linear_1_2309)"/>
<path d="M228.203 360.036L235.964 367.987L350.672 275.236L228.203 360.036Z" fill="#D9D9D9" stroke="black" stroke-width="0.378575"/>
<path d="M235.959 367.987L91.3438 345.651L228.199 360.036L235.959 367.987Z" fill="#D9D9D9" stroke="black" stroke-width="0.378575"/>
<path d="M350.672 275.236L228.203 360.037L281.393 177.942L350.672 275.236Z" fill="#D9D9D9" stroke="black" stroke-width="0.378575"/>
<path d="M350.67 275.236L281.391 177.942L306.755 126.077L350.67 275.236Z" fill="#D9D9D9" stroke="black" stroke-width="0.378575"/>
<path d="M228.199 360.037L281.388 177.942L91.3438 228.292L228.199 360.037Z" fill="#D9D9D9" stroke="black" stroke-width="0.378575"/>
<path d="M228.199 360.037L91.3438 228.292V345.651L228.199 360.037Z" fill="#D9D9D9" stroke="black" stroke-width="0.378575"/>
<path d="M91.3465 345.651V228.292L58.7891 192.706L91.3465 345.651Z" fill="#D9D9D9" stroke="black" stroke-width="0.378575"/>
<path d="M306.759 126.077L281.394 177.942L158.547 82.9197L306.759 126.077Z" fill="#D9D9D9" stroke="black" stroke-width="0.378575"/>
<path d="M91.3465 228.292L58.7891 192.706L158.544 82.9197L91.3465 228.292Z" stroke="black" stroke-width="0.378575"/>
<path d="M281.388 177.942L91.3438 228.292L158.541 82.9197L281.388 177.942Z" fill="#D9D9D9" stroke="black" stroke-width="0.378575"/>
<path d="M228.203 360.036L235.964 367.987L350.672 275.236L228.203 360.036Z" fill="url(#paint1_linear_1_2309)" stroke="black" stroke-width="0.378575"/>
<path d="M235.959 367.987L91.3438 345.651L228.199 360.036L235.959 367.987Z" fill="url(#paint2_linear_1_2309)" stroke="black" stroke-width="0.378575"/>
<path d="M350.672 275.236L228.203 360.037L281.393 177.942L350.672 275.236Z" fill="url(#paint3_linear_1_2309)" stroke="black" stroke-width="0.378575"/>
<path d="M350.67 275.236L281.391 177.942L306.755 126.077L350.67 275.236Z" fill="url(#paint4_linear_1_2309)" stroke="black" stroke-width="0.378575"/>
<path d="M228.199 360.037L281.388 177.942L91.3438 228.292L228.199 360.037Z" fill="url(#paint5_linear_1_2309)" stroke="black" stroke-width="0.378575"/>
<path d="M228.199 360.037L91.3438 228.292V345.651L228.199 360.037Z" fill="url(#paint6_linear_1_2309)" stroke="black" stroke-width="0.378575"/>
<path d="M91.3465 345.651V228.292L58.7891 192.706L91.3465 345.651Z" fill="url(#paint7_linear_1_2309)" stroke="black" stroke-width="0.378575"/>
<path d="M306.759 126.077L281.394 177.942L158.547 82.9197L306.759 126.077Z" fill="url(#paint8_linear_1_2309)" stroke="black" stroke-width="0.378575"/>
<path d="M91.3465 228.292L58.7891 192.706L158.544 82.9197L91.3465 228.292Z" fill="url(#paint9_linear_1_2309)" stroke="black" stroke-width="0.378575"/>
<path d="M281.388 177.942L91.3438 228.292L158.541 82.9197L281.388 177.942Z" fill="url(#paint10_linear_1_2309)" stroke="black" stroke-width="0.378575"/>
</g>
<defs>
<linearGradient id="paint0_linear_1_2309" x1="204.915" y1="302.115" x2="204.915" y2="511.088" gradientUnits="userSpaceOnUse">
<stop stop-color="#02819D" stop-opacity="0"/>
<stop offset="1" stop-color="#055042"/>
</linearGradient>
<linearGradient id="paint1_linear_1_2309" x1="256.218" y1="350.951" x2="250.539" y2="343.758" gradientUnits="userSpaceOnUse">
<stop stop-color="#044064" stop-opacity="0"/>
<stop offset="1" stop-color="#044064" stop-opacity="0.18"/>
</linearGradient>
<linearGradient id="paint2_linear_1_2309" x1="163.652" y1="352.654" x2="235.959" y2="367.987" gradientUnits="userSpaceOnUse">
<stop stop-color="#044064"/>
<stop offset="1" stop-color="#044064" stop-opacity="0.61"/>
</linearGradient>
<linearGradient id="paint3_linear_1_2309" x1="319.818" y1="231.7" x2="228.392" y2="356.629" gradientUnits="userSpaceOnUse">
<stop offset="0.161919" stop-color="white" stop-opacity="0.22"/>
<stop offset="1" stop-color="white" stop-opacity="0"/>
</linearGradient>
<linearGradient id="paint4_linear_1_2309" x1="281.391" y1="177.563" x2="319.248" y2="165.26" gradientUnits="userSpaceOnUse">
<stop stop-color="white" stop-opacity="0"/>
<stop offset="1" stop-color="white" stop-opacity="0.08"/>
</linearGradient>
<linearGradient id="paint5_linear_1_2309" x1="281.388" y1="177.942" x2="91.3437" y2="228.103" gradientUnits="userSpaceOnUse">
<stop offset="0.472188" stop-color="white" stop-opacity="0.49"/>
<stop offset="1" stop-color="white" stop-opacity="0.05"/>
</linearGradient>
<linearGradient id="paint6_linear_1_2309" x1="91.3438" y1="344.894" x2="175.198" y2="309.686" gradientUnits="userSpaceOnUse">
<stop stop-color="#044064" stop-opacity="0.69"/>
<stop offset="1" stop-color="#044064" stop-opacity="0.09"/>
</linearGradient>
<linearGradient id="paint7_linear_1_2309" x1="69.957" y1="235.864" x2="91.3465" y2="228.671" gradientUnits="userSpaceOnUse">
<stop stop-color="#044064" stop-opacity="0.42"/>
<stop offset="1" stop-color="#044064"/>
</linearGradient>
<linearGradient id="paint8_linear_1_2309" x1="188.644" y1="105.823" x2="306.759" y2="125.509" gradientUnits="userSpaceOnUse">
<stop offset="0.505545" stop-color="white" stop-opacity="0.5"/>
<stop offset="1" stop-color="white" stop-opacity="0"/>
</linearGradient>
<linearGradient id="paint9_linear_1_2309" x1="123.715" y1="155.606" x2="58.7891" y2="192.517" gradientUnits="userSpaceOnUse">
<stop stop-color="#044064" stop-opacity="0.88"/>
<stop offset="1" stop-color="#044064" stop-opacity="0"/>
</linearGradient>
<linearGradient id="paint10_linear_1_2309" x1="112.355" y1="151.252" x2="281.388" y2="176.996" gradientUnits="userSpaceOnUse">
<stop stop-color="white" stop-opacity="0"/>
<stop offset="0.628031" stop-color="white" stop-opacity="0.32"/>
</linearGradient>
<clipPath id="clip0_1_2309">
<rect width="408.861" height="511.076" fill="white" transform="translate(0.484375 0.0117188)"/>
</clipPath>
</defs>
</svg>
