<svg width="60" height="60" viewBox="0 0 60 60" fill="none" xmlns="http://www.w3.org/2000/svg">
<path d="M51.5738 0C50.8908 0 50.3359 0.551522 50.3359 1.23393C50.3359 1.91802 50.8908 2.47178 51.5738 2.47178C52.2556 2.47178 52.8105 1.91746 52.8105 1.23393C52.8105 0.550963 52.2556 0 51.5738 0Z" fill="#C4C4C4"/>
<path d="M51.5738 7.1897C50.8908 7.1897 50.3359 7.74402 50.3359 8.42755C50.3359 9.1094 50.8908 9.66148 51.5738 9.66148C52.2556 9.66148 52.8105 9.1094 52.8105 8.42755C52.8105 7.74402 52.2556 7.1897 51.5738 7.1897Z" fill="#C4C4C4"/>
<path d="M51.5738 14.3816C50.8908 14.3816 50.3359 14.9331 50.3359 15.6166C50.3359 16.3002 50.8908 16.8523 51.5738 16.8523C52.2556 16.8523 52.8105 16.2996 52.8105 15.6166C52.8105 14.9331 52.2556 14.3816 51.5738 14.3816Z" fill="#C4C4C4"/>
<path d="M51.5738 21.572C50.8908 21.572 50.3359 22.1247 50.3359 22.8076C50.3359 23.4912 50.8908 24.0427 51.5738 24.0427C52.2556 24.0427 52.8105 23.4912 52.8105 22.8076C52.8105 22.1252 52.2556 21.572 51.5738 21.572Z" fill="#C4C4C4"/>
<path d="M51.5738 28.7642C50.8908 28.7642 50.3359 29.3157 50.3359 29.9987C50.3359 30.6822 50.8908 31.2337 51.5738 31.2337C52.2556 31.2337 52.8105 30.6827 52.8105 29.9987C52.8105 29.3157 52.2556 28.7642 51.5738 28.7642Z" fill="#C4C4C4"/>
<path d="M51.5738 35.9561C50.8908 35.9561 50.3359 36.5076 50.3359 37.1911C50.3359 37.8713 50.8908 38.4284 51.5738 38.4284C52.2556 38.4284 52.8105 37.8707 52.8105 37.1911C52.8105 36.5076 52.2556 35.9561 51.5738 35.9561Z" fill="#C4C4C4"/>
<path d="M51.5738 43.1455C50.8908 43.1455 50.3359 43.6993 50.3359 44.3828C50.3359 45.0635 50.8908 45.6178 51.5738 45.6178C52.2556 45.6178 52.8105 45.0635 52.8105 44.3828C52.8105 43.6998 52.2556 43.1455 51.5738 43.1455Z" fill="#C4C4C4"/>
<path d="M51.5738 50.3384C50.8908 50.3384 50.3359 50.8893 50.3359 51.5723C50.3359 52.2558 50.8908 52.8096 51.5738 52.8096C52.2556 52.8096 52.8105 52.2553 52.8105 51.5723C52.8105 50.8893 52.2556 50.3384 51.5738 50.3384Z" fill="#C4C4C4"/>
<path d="M51.5738 57.5283C50.8908 57.5283 50.3359 58.0798 50.3359 58.7628C50.3359 59.4458 50.8908 60.0001 51.5738 60.0001C52.2556 60.0001 52.8105 59.4452 52.8105 58.7628C52.8105 58.0798 52.2556 57.5283 51.5738 57.5283Z" fill="#C4C4C4"/>
<path d="M58.7657 2.47178C59.4476 2.47178 60.0019 1.91746 60.0019 1.23393C60.0019 0.551522 59.4476 0 58.7657 0C58.08 0 57.5312 0.551522 57.5312 1.23393C57.5312 1.91746 58.0805 2.47178 58.7657 2.47178Z" fill="#C4C4C4"/>
<path d="M58.7657 7.1897C58.08 7.1897 57.5312 7.74402 57.5312 8.42755C57.5312 9.1094 58.08 9.66148 58.7657 9.66148C59.4476 9.66148 60.0019 9.1094 60.0019 8.42755C60.0019 7.74402 59.4476 7.1897 58.7657 7.1897Z" fill="#C4C4C4"/>
<path d="M58.7657 14.3816C58.08 14.3816 57.5312 14.9331 57.5312 15.6166C57.5312 16.3002 58.08 16.8523 58.7657 16.8523C59.4476 16.8523 60.0019 16.2996 60.0019 15.6166C60.0019 14.9331 59.4476 14.3816 58.7657 14.3816Z" fill="#C4C4C4"/>
<path d="M58.7657 21.572C58.08 21.572 57.5312 22.1247 57.5312 22.8076C57.5312 23.4912 58.08 24.0427 58.7657 24.0427C59.4476 24.0427 60.0019 23.4912 60.0019 22.8076C60.0019 22.1252 59.4476 21.572 58.7657 21.572Z" fill="#C4C4C4"/>
<path d="M58.7657 28.7642C58.08 28.7642 57.5312 29.3157 57.5312 29.9987C57.5312 30.6822 58.08 31.2337 58.7657 31.2337C59.4476 31.2337 60.0019 30.6827 60.0019 29.9987C60.0019 29.3157 59.4476 28.7642 58.7657 28.7642Z" fill="#C4C4C4"/>
<path d="M58.7657 35.9561C58.08 35.9561 57.5312 36.5076 57.5312 37.1911C57.5312 37.8713 58.08 38.4284 58.7657 38.4284C59.4476 38.4284 60.0019 37.8707 60.0019 37.1911C60.0019 36.5076 59.4476 35.9561 58.7657 35.9561Z" fill="#C4C4C4"/>
<path d="M58.7657 43.1455C58.08 43.1455 57.5312 43.6993 57.5312 44.3828C57.5312 45.0635 58.08 45.6178 58.7657 45.6178C59.4476 45.6178 60.0019 45.0635 60.0019 44.3828C60.0019 43.6998 59.4476 43.1455 58.7657 43.1455Z" fill="#C4C4C4"/>
<path d="M58.7657 50.3384C58.08 50.3384 57.5312 50.8893 57.5312 51.5723C57.5312 52.2558 58.08 52.8096 58.7657 52.8096C59.4476 52.8096 60.0019 52.2553 60.0019 51.5723C60.0019 50.8893 59.4476 50.3384 58.7657 50.3384Z" fill="#C4C4C4"/>
<path d="M58.7657 57.5283C58.08 57.5283 57.5312 58.0798 57.5312 58.7628C57.5312 59.4458 58.08 60.0001 58.7657 60.0001C59.4476 60.0001 60.0019 59.4452 60.0019 58.7628C60.0019 58.0798 59.4476 57.5283 58.7657 57.5283Z" fill="#C4C4C4"/>
<path d="M1.23617 0C0.554324 0 0 0.551522 0 1.23393C0 1.91802 0.554324 2.47178 1.23617 2.47178C1.91801 2.47178 2.47065 1.91746 2.47065 1.23393C2.47009 0.550963 1.91801 0 1.23617 0Z" fill="#C4C4C4"/>
<path d="M1.23617 7.18964C0.554324 7.18964 0 7.74395 0 8.42748C0 9.10934 0.554324 9.66142 1.23617 9.66142C1.91801 9.66142 2.47065 9.10934 2.47065 8.42748C2.47009 7.74395 1.91801 7.18964 1.23617 7.18964Z" fill="#C4C4C4"/>
<path d="M1.23617 14.3815C0.554324 14.3815 0 14.9331 0 15.6166C0 16.3001 0.554324 16.8522 1.23617 16.8522C1.91801 16.8522 2.47065 16.2996 2.47065 15.6166C2.47009 14.9331 1.91801 14.3815 1.23617 14.3815Z" fill="#C4C4C4"/>
<path d="M1.23617 21.5721C0.554324 21.5721 0 22.1247 0 22.8077C0 23.4912 0.554324 24.0427 1.23617 24.0427C1.91801 24.0427 2.47065 23.4912 2.47065 22.8077C2.47009 22.1253 1.91801 21.5721 1.23617 21.5721Z" fill="#C4C4C4"/>
<path d="M1.23617 28.7641C0.554324 28.7641 0 29.3156 0 29.9986C0 30.6821 0.554324 31.2336 1.23617 31.2336C1.91801 31.2336 2.47065 30.6827 2.47065 29.9986C2.47009 29.3156 1.91801 28.7641 1.23617 28.7641Z" fill="#C4C4C4"/>
<path d="M1.23617 35.9561C0.554324 35.9561 0 36.5076 0 37.1911C0 37.8713 0.554324 38.4284 1.23617 38.4284C1.91801 38.4284 2.47065 37.8707 2.47065 37.1911C2.47009 36.5076 1.91801 35.9561 1.23617 35.9561Z" fill="#C4C4C4"/>
<path d="M1.23617 43.1456C0.554324 43.1456 0 43.6993 0 44.3829C0 45.0636 0.554324 45.6179 1.23617 45.6179C1.91801 45.6179 2.47065 45.0636 2.47065 44.3829C2.47009 43.6999 1.91801 43.1456 1.23617 43.1456Z" fill="#C4C4C4"/>
<path d="M1.23617 50.3385C0.554324 50.3385 0 50.8895 0 51.5724C0 52.256 0.554324 52.8097 1.23617 52.8097C1.91801 52.8097 2.47065 52.2554 2.47065 51.5724C2.47009 50.8895 1.91801 50.3385 1.23617 50.3385Z" fill="#C4C4C4"/>
<path d="M1.23617 57.5283C0.554324 57.5283 0 58.0798 0 58.7628C0 59.4457 0.554324 60 1.23617 60C1.91801 60 2.47065 59.4452 2.47065 58.7628C2.47009 58.0798 1.91801 57.5283 1.23617 57.5283Z" fill="#C4C4C4"/>
<path d="M8.42365 0C7.74013 0 7.1875 0.551522 7.1875 1.23393C7.1875 1.91802 7.74013 2.47178 8.42365 2.47178C9.10549 2.47178 9.66093 1.91746 9.66093 1.23393C9.66093 0.550963 9.10549 0 8.42365 0Z" fill="#C4C4C4"/>
<path d="M8.42365 7.1897C7.74013 7.1897 7.1875 7.74402 7.1875 8.42755C7.1875 9.1094 7.74013 9.66148 8.42365 9.66148C9.10549 9.66148 9.66093 9.1094 9.66093 8.42755C9.66093 7.74402 9.10549 7.1897 8.42365 7.1897Z" fill="#C4C4C4"/>
<path d="M8.42365 14.3816C7.74013 14.3816 7.1875 14.9331 7.1875 15.6166C7.1875 16.3002 7.74013 16.8523 8.42365 16.8523C9.10549 16.8523 9.66093 16.2996 9.66093 15.6166C9.66093 14.9331 9.10549 14.3816 8.42365 14.3816Z" fill="#C4C4C4"/>
<path d="M8.42365 21.572C7.74013 21.572 7.1875 22.1247 7.1875 22.8076C7.1875 23.4912 7.74013 24.0427 8.42365 24.0427C9.10549 24.0427 9.66093 23.4912 9.66093 22.8076C9.66093 22.1252 9.10549 21.572 8.42365 21.572Z" fill="#C4C4C4"/>
<path d="M8.42365 28.7642C7.74013 28.7642 7.1875 29.3157 7.1875 29.9987C7.1875 30.6822 7.74013 31.2337 8.42365 31.2337C9.10549 31.2337 9.66093 30.6827 9.66093 29.9987C9.66093 29.3157 9.10549 28.7642 8.42365 28.7642Z" fill="#C4C4C4"/>
<path d="M8.42365 35.9561C7.74013 35.9561 7.1875 36.5076 7.1875 37.1911C7.1875 37.8713 7.74013 38.4284 8.42365 38.4284C9.10549 38.4284 9.66093 37.8707 9.66093 37.1911C9.66093 36.5076 9.10549 35.9561 8.42365 35.9561Z" fill="#C4C4C4"/>
<path d="M8.42365 43.1455C7.74013 43.1455 7.1875 43.6993 7.1875 44.3828C7.1875 45.0635 7.74013 45.6178 8.42365 45.6178C9.10549 45.6178 9.66093 45.0635 9.66093 44.3828C9.66093 43.6998 9.10549 43.1455 8.42365 43.1455Z" fill="#C4C4C4"/>
<path d="M8.42365 50.3384C7.74013 50.3384 7.1875 50.8893 7.1875 51.5723C7.1875 52.2558 7.74013 52.8096 8.42365 52.8096C9.10549 52.8096 9.66093 52.2553 9.66093 51.5723C9.66093 50.8893 9.10549 50.3384 8.42365 50.3384Z" fill="#C4C4C4"/>
<path d="M8.42365 57.5283C7.74013 57.5283 7.1875 58.0798 7.1875 58.7628C7.1875 59.4458 7.74013 60.0001 8.42365 60.0001C9.10549 60.0001 9.66093 59.4452 9.66093 58.7628C9.66093 58.0798 9.10549 57.5283 8.42365 57.5283Z" fill="#C4C4C4"/>
<path d="M15.6257 0C14.9433 0 14.3906 0.551522 14.3906 1.23393C14.3906 1.91802 14.9433 2.47178 15.6257 2.47178C16.3103 2.47178 16.8629 1.91746 16.8629 1.23393C16.8629 0.550963 16.3097 0 15.6257 0Z" fill="#C4C4C4"/>
<path d="M15.6257 7.1897C14.9433 7.1897 14.3906 7.74402 14.3906 8.42755C14.3906 9.1094 14.9433 9.66148 15.6257 9.66148C16.3103 9.66148 16.8629 9.1094 16.8629 8.42755C16.8629 7.74402 16.3097 7.1897 15.6257 7.1897Z" fill="#C4C4C4"/>
<path d="M15.6257 14.3816C14.9433 14.3816 14.3906 14.9331 14.3906 15.6166C14.3906 16.3002 14.9433 16.8523 15.6257 16.8523C16.3103 16.8523 16.8629 16.2996 16.8629 15.6166C16.8629 14.9331 16.3097 14.3816 15.6257 14.3816Z" fill="#C4C4C4"/>
<path d="M15.6257 21.572C14.9433 21.572 14.3906 22.1247 14.3906 22.8076C14.3906 23.4912 14.9433 24.0427 15.6257 24.0427C16.3103 24.0427 16.8629 23.4912 16.8629 22.8076C16.8629 22.1252 16.3097 21.572 15.6257 21.572Z" fill="#C4C4C4"/>
<path d="M15.6257 28.7642C14.9433 28.7642 14.3906 29.3157 14.3906 29.9987C14.3906 30.6822 14.9433 31.2337 15.6257 31.2337C16.3103 31.2337 16.8629 30.6827 16.8629 29.9987C16.8629 29.3157 16.3097 28.7642 15.6257 28.7642Z" fill="#C4C4C4"/>
<path d="M15.6257 35.9561C14.9433 35.9561 14.3906 36.5076 14.3906 37.1911C14.3906 37.8713 14.9433 38.4284 15.6257 38.4284C16.3103 38.4284 16.8629 37.8707 16.8629 37.1911C16.8629 36.5076 16.3097 35.9561 15.6257 35.9561Z" fill="#C4C4C4"/>
<path d="M15.6257 43.1455C14.9433 43.1455 14.3906 43.6993 14.3906 44.3828C14.3906 45.0635 14.9433 45.6178 15.6257 45.6178C16.3103 45.6178 16.8629 45.0635 16.8629 44.3828C16.8629 43.6998 16.3097 43.1455 15.6257 43.1455Z" fill="#C4C4C4"/>
<path d="M15.6257 50.3384C14.9433 50.3384 14.3906 50.8893 14.3906 51.5723C14.3906 52.2558 14.9433 52.8096 15.6257 52.8096C16.3103 52.8096 16.8629 52.2553 16.8629 51.5723C16.8629 50.8893 16.3097 50.3384 15.6257 50.3384Z" fill="#C4C4C4"/>
<path d="M15.6257 57.5283C14.9433 57.5283 14.3906 58.0798 14.3906 58.7628C14.3906 59.4458 14.9433 60.0001 15.6257 60.0001C16.3103 60.0001 16.8629 59.4452 16.8629 58.7628C16.8629 58.0798 16.3097 57.5283 15.6257 57.5283Z" fill="#C4C4C4"/>
<path d="M22.8081 0C22.1257 0 21.5703 0.551522 21.5703 1.23393C21.5703 1.91802 22.1257 2.47178 22.8081 2.47178C23.49 2.47178 24.0421 1.91746 24.0421 1.23393C24.0421 0.550963 23.49 0 22.8081 0Z" fill="#C4C4C4"/>
<path d="M22.8081 7.1897C22.1257 7.1897 21.5703 7.74402 21.5703 8.42755C21.5703 9.1094 22.1257 9.66148 22.8081 9.66148C23.49 9.66148 24.0421 9.1094 24.0421 8.42755C24.0421 7.74402 23.49 7.1897 22.8081 7.1897Z" fill="#C4C4C4"/>
<path d="M22.8081 14.3816C22.1257 14.3816 21.5703 14.9331 21.5703 15.6166C21.5703 16.3002 22.1257 16.8523 22.8081 16.8523C23.49 16.8523 24.0421 16.2996 24.0421 15.6166C24.0421 14.9331 23.49 14.3816 22.8081 14.3816Z" fill="#C4C4C4"/>
<path d="M22.8081 21.572C22.1257 21.572 21.5703 22.1247 21.5703 22.8076C21.5703 23.4912 22.1257 24.0427 22.8081 24.0427C23.49 24.0427 24.0421 23.4912 24.0421 22.8076C24.0421 22.1252 23.49 21.572 22.8081 21.572Z" fill="#C4C4C4"/>
<path d="M22.8081 28.7642C22.1257 28.7642 21.5703 29.3157 21.5703 29.9987C21.5703 30.6822 22.1257 31.2337 22.8081 31.2337C23.49 31.2337 24.0421 30.6827 24.0421 29.9987C24.0421 29.3157 23.49 28.7642 22.8081 28.7642Z" fill="#C4C4C4"/>
<path d="M22.8081 35.9561C22.1257 35.9561 21.5703 36.5076 21.5703 37.1911C21.5703 37.8713 22.1257 38.4284 22.8081 38.4284C23.49 38.4284 24.0421 37.8707 24.0421 37.1911C24.0421 36.5076 23.49 35.9561 22.8081 35.9561Z" fill="#C4C4C4"/>
<path d="M22.8081 43.1455C22.1257 43.1455 21.5703 43.6993 21.5703 44.3828C21.5703 45.0635 22.1257 45.6178 22.8081 45.6178C23.49 45.6178 24.0421 45.0635 24.0421 44.3828C24.0421 43.6998 23.49 43.1455 22.8081 43.1455Z" fill="#C4C4C4"/>
<path d="M22.8081 50.3384C22.1257 50.3384 21.5703 50.8893 21.5703 51.5723C21.5703 52.2558 22.1257 52.8096 22.8081 52.8096C23.49 52.8096 24.0421 52.2553 24.0421 51.5723C24.0421 50.8893 23.49 50.3384 22.8081 50.3384Z" fill="#C4C4C4"/>
<path d="M22.8081 57.5283C22.1257 57.5283 21.5703 58.0798 21.5703 58.7628C21.5703 59.4458 22.1257 60.0001 22.8081 60.0001C23.49 60.0001 24.0421 59.4452 24.0421 58.7628C24.0421 58.0798 23.49 57.5283 22.8081 57.5283Z" fill="#C4C4C4"/>
<path d="M30.0034 0C29.3216 0 28.7656 0.551522 28.7656 1.23393C28.7656 1.91802 29.3216 2.47178 30.0034 2.47178C30.6853 2.47178 31.2374 1.91746 31.2374 1.23393C31.2374 0.550963 30.6847 0 30.0034 0Z" fill="#C4C4C4"/>
<path d="M30.0034 7.1897C29.3216 7.1897 28.7656 7.74402 28.7656 8.42755C28.7656 9.1094 29.3216 9.66148 30.0034 9.66148C30.6853 9.66148 31.2374 9.1094 31.2374 8.42755C31.2374 7.74402 30.6847 7.1897 30.0034 7.1897Z" fill="#C4C4C4"/>
<path d="M30.0034 14.3816C29.3216 14.3816 28.7656 14.9331 28.7656 15.6166C28.7656 16.3002 29.3216 16.8523 30.0034 16.8523C30.6853 16.8523 31.2374 16.2996 31.2374 15.6166C31.2374 14.9331 30.6847 14.3816 30.0034 14.3816Z" fill="#C4C4C4"/>
<path d="M30.0034 21.572C29.3216 21.572 28.7656 22.1247 28.7656 22.8076C28.7656 23.4912 29.3216 24.0427 30.0034 24.0427C30.6853 24.0427 31.2374 23.4912 31.2374 22.8076C31.2374 22.1252 30.6847 21.572 30.0034 21.572Z" fill="#C4C4C4"/>
<path d="M30.0034 28.7642C29.3216 28.7642 28.7656 29.3157 28.7656 29.9987C28.7656 30.6822 29.3216 31.2337 30.0034 31.2337C30.6853 31.2337 31.2374 30.6827 31.2374 29.9987C31.2374 29.3157 30.6847 28.7642 30.0034 28.7642Z" fill="#C4C4C4"/>
<path d="M30.0034 35.9561C29.3216 35.9561 28.7656 36.5076 28.7656 37.1911C28.7656 37.8713 29.3216 38.4284 30.0034 38.4284C30.6853 38.4284 31.2374 37.8707 31.2374 37.1911C31.2374 36.5076 30.6847 35.9561 30.0034 35.9561Z" fill="#C4C4C4"/>
<path d="M30.0034 43.1455C29.3216 43.1455 28.7656 43.6993 28.7656 44.3828C28.7656 45.0635 29.3216 45.6178 30.0034 45.6178C30.6853 45.6178 31.2374 45.0635 31.2374 44.3828C31.2374 43.6998 30.6847 43.1455 30.0034 43.1455Z" fill="#C4C4C4"/>
<path d="M30.0034 50.3384C29.3216 50.3384 28.7656 50.8893 28.7656 51.5723C28.7656 52.2558 29.3216 52.8096 30.0034 52.8096C30.6853 52.8096 31.2374 52.2553 31.2374 51.5723C31.2374 50.8893 30.6847 50.3384 30.0034 50.3384Z" fill="#C4C4C4"/>
<path d="M30.0034 57.5283C29.3216 57.5283 28.7656 58.0798 28.7656 58.7628C28.7656 59.4458 29.3216 60.0001 30.0034 60.0001C30.6853 60.0001 31.2374 59.4452 31.2374 58.7628C31.2374 58.0798 30.6847 57.5283 30.0034 57.5283Z" fill="#C4C4C4"/>
<path d="M37.1887 0C36.5069 0 35.9531 0.551522 35.9531 1.23393C35.9531 1.91802 36.5069 2.47178 37.1887 2.47178C37.8739 2.47178 38.4266 1.91746 38.4266 1.23393C38.4266 0.550963 37.8739 0 37.1887 0Z" fill="#C4C4C4"/>
<path d="M37.1887 7.1897C36.5069 7.1897 35.9531 7.74402 35.9531 8.42755C35.9531 9.1094 36.5069 9.66148 37.1887 9.66148C37.8739 9.66148 38.4266 9.1094 38.4266 8.42755C38.4266 7.74402 37.8739 7.1897 37.1887 7.1897Z" fill="#C4C4C4"/>
<path d="M37.1887 14.3816C36.5069 14.3816 35.9531 14.9331 35.9531 15.6166C35.9531 16.3002 36.5069 16.8523 37.1887 16.8523C37.8739 16.8523 38.4266 16.2996 38.4266 15.6166C38.4266 14.9331 37.8739 14.3816 37.1887 14.3816Z" fill="#C4C4C4"/>
<path d="M37.1887 21.572C36.5069 21.572 35.9531 22.1247 35.9531 22.8076C35.9531 23.4912 36.5069 24.0427 37.1887 24.0427C37.8739 24.0427 38.4266 23.4912 38.4266 22.8076C38.4266 22.1252 37.8739 21.572 37.1887 21.572Z" fill="#C4C4C4"/>
<path d="M37.1887 28.7642C36.5069 28.7642 35.9531 29.3157 35.9531 29.9987C35.9531 30.6822 36.5069 31.2337 37.1887 31.2337C37.8739 31.2337 38.4266 30.6827 38.4266 29.9987C38.4266 29.3157 37.8739 28.7642 37.1887 28.7642Z" fill="#C4C4C4"/>
<path d="M37.1887 35.9561C36.5069 35.9561 35.9531 36.5076 35.9531 37.1911C35.9531 37.8713 36.5069 38.4284 37.1887 38.4284C37.8739 38.4284 38.4266 37.8707 38.4266 37.1911C38.4266 36.5076 37.8739 35.9561 37.1887 35.9561Z" fill="#C4C4C4"/>
<path d="M37.1887 43.1455C36.5069 43.1455 35.9531 43.6993 35.9531 44.3828C35.9531 45.0635 36.5069 45.6178 37.1887 45.6178C37.8739 45.6178 38.4266 45.0635 38.4266 44.3828C38.4266 43.6998 37.8739 43.1455 37.1887 43.1455Z" fill="#C4C4C4"/>
<path d="M37.1887 50.3384C36.5069 50.3384 35.9531 50.8893 35.9531 51.5723C35.9531 52.2558 36.5069 52.8096 37.1887 52.8096C37.8739 52.8096 38.4266 52.2553 38.4266 51.5723C38.4266 50.8893 37.8739 50.3384 37.1887 50.3384Z" fill="#C4C4C4"/>
<path d="M37.1887 57.5283C36.5069 57.5283 35.9531 58.0798 35.9531 58.7628C35.9531 59.4458 36.5069 60.0001 37.1887 60.0001C37.8739 60.0001 38.4266 59.4452 38.4266 58.7628C38.4266 58.0798 37.8739 57.5283 37.1887 57.5283Z" fill="#C4C4C4"/>
<path d="M44.3852 0C43.7 0 43.1484 0.551522 43.1484 1.23393C43.1484 1.91802 43.7 2.47178 44.3852 2.47178C45.0659 2.47178 45.6196 1.91746 45.6196 1.23393C45.6196 0.550963 45.0653 0 44.3852 0Z" fill="#C4C4C4"/>
<path d="M44.3852 7.1897C43.7 7.1897 43.1484 7.74402 43.1484 8.42755C43.1484 9.1094 43.7 9.66148 44.3852 9.66148C45.0659 9.66148 45.6196 9.1094 45.6196 8.42755C45.6196 7.74402 45.0653 7.1897 44.3852 7.1897Z" fill="#C4C4C4"/>
<path d="M44.3852 14.3816C43.7 14.3816 43.1484 14.9331 43.1484 15.6166C43.1484 16.3002 43.7 16.8523 44.3852 16.8523C45.0659 16.8523 45.6196 16.2996 45.6196 15.6166C45.6196 14.9331 45.0653 14.3816 44.3852 14.3816Z" fill="#C4C4C4"/>
<path d="M44.3852 21.572C43.7 21.572 43.1484 22.1247 43.1484 22.8076C43.1484 23.4912 43.7 24.0427 44.3852 24.0427C45.0659 24.0427 45.6196 23.4912 45.6196 22.8076C45.6196 22.1252 45.0653 21.572 44.3852 21.572Z" fill="#C4C4C4"/>
<path d="M44.3852 28.7642C43.7 28.7642 43.1484 29.3157 43.1484 29.9987C43.1484 30.6822 43.7 31.2337 44.3852 31.2337C45.0659 31.2337 45.6196 30.6827 45.6196 29.9987C45.6196 29.3157 45.0653 28.7642 44.3852 28.7642Z" fill="#C4C4C4"/>
<path d="M44.3852 35.9561C43.7 35.9561 43.1484 36.5076 43.1484 37.1911C43.1484 37.8713 43.7 38.4284 44.3852 38.4284C45.0659 38.4284 45.6196 37.8707 45.6196 37.1911C45.6196 36.5076 45.0653 35.9561 44.3852 35.9561Z" fill="#C4C4C4"/>
<path d="M44.3852 43.1455C43.7 43.1455 43.1484 43.6993 43.1484 44.3828C43.1484 45.0635 43.7 45.6178 44.3852 45.6178C45.0659 45.6178 45.6196 45.0635 45.6196 44.3828C45.6196 43.6998 45.0653 43.1455 44.3852 43.1455Z" fill="#C4C4C4"/>
<path d="M44.3852 50.3384C43.7 50.3384 43.1484 50.8893 43.1484 51.5723C43.1484 52.2558 43.7 52.8096 44.3852 52.8096C45.0659 52.8096 45.6196 52.2553 45.6196 51.5723C45.6196 50.8893 45.0653 50.3384 44.3852 50.3384Z" fill="#C4C4C4"/>
<path d="M44.3852 57.5283C43.7 57.5283 43.1484 58.0798 43.1484 58.7628C43.1484 59.4458 43.7 60.0001 44.3852 60.0001C45.0659 60.0001 45.6196 59.4452 45.6196 58.7628C45.6196 58.0798 45.0653 57.5283 44.3852 57.5283Z" fill="#C4C4C4"/>
</svg>
