<svg width="64" height="64" viewBox="0 0 64 64" fill="none" xmlns="http://www.w3.org/2000/svg">
<path d="M6.146 50.8658L13.1289 57.8518C14.4978 58.8513 15.9158 59.7538 17.3916 60.5114L3.48438 46.6011C4.2411 48.0789 5.14441 49.4969 6.146 50.8658Z" fill="#C4C4C4"/>
<path d="M0.674201 38.6337L25.3647 63.3242C26.0051 63.4606 26.6513 63.5613 27.3007 63.6563L0.34375 36.7009C0.43834 37.3491 0.539482 37.9936 0.674201 38.6337Z" fill="#C4C4C4"/>
<path d="M34.3256 63.9263L0.0737068 29.6749C0.0368535 30.1851 0.0122844 30.6949 0 31.2047L32.7941 64C33.306 63.9865 33.817 63.9648 34.3256 63.9263Z" fill="#C4C4C4"/>
<path d="M40.1129 62.9642L1.03159 23.8813C0.921443 24.3084 0.810883 24.7372 0.71875 25.1704L38.8267 63.2766C39.2587 63.1832 39.6842 63.0731 40.1129 62.9642Z" fill="#C4C4C4"/>
<path d="M45.1102 61.201L2.79395 18.8887C2.6318 19.2552 2.44221 19.6118 2.28906 19.9853L44.0136 61.7067C44.3842 61.5564 44.7425 61.3664 45.1102 61.201Z" fill="#C4C4C4"/>
<path d="M49.4941 58.833L5.15625 14.4978C4.94209 14.827 4.76437 15.1714 4.5625 15.5035L48.4864 59.4312C48.8234 59.2277 49.1665 59.0487 49.4941 58.833Z" fill="#C4C4C4"/>
<path d="M53.3069 55.8771L8.12719 10.698C7.87617 10.9801 7.60632 11.2524 7.36719 11.5419L52.4613 56.6399C52.7521 56.3988 53.0248 56.1297 53.3069 55.8771Z" fill="#C4C4C4"/>
<path d="M56.6428 52.4589L11.5426 7.36255C11.2547 7.60127 10.9824 7.87071 10.7031 8.12172L55.88 53.3024C56.1314 53.0191 56.4008 52.7464 56.6428 52.4589Z" fill="#C4C4C4"/>
<path d="M59.4316 48.4936L15.5073 4.56873C15.1736 4.76937 14.8276 4.94873 14.5 5.16452L58.8342 49.5009C59.0516 49.1705 59.2293 48.8289 59.4316 48.4936Z" fill="#C4C4C4"/>
<path d="M61.7015 44.0139L19.9794 2.2937C19.6092 2.44234 19.2509 2.63397 18.8828 2.79735L61.1994 45.1117C61.3616 44.744 61.5549 44.3874 61.7015 44.0139Z" fill="#C4C4C4"/>
<path d="M63.277 38.828L25.169 0.720947C24.7403 0.815127 24.3115 0.926093 23.8828 1.03665L62.9613 40.1191C63.0751 39.6887 63.1824 39.2616 63.277 38.828Z" fill="#C4C4C4"/>
<path d="M63.9979 32.7957L31.2033 0C30.6915 0.0135127 30.1837 0.0352119 29.6719 0.0737026L63.927 34.3267C63.9639 33.817 63.9856 33.3072 63.9979 32.7957Z" fill="#C4C4C4"/>
<path d="M63.3235 25.3664L38.6359 0.674599C37.9954 0.538244 37.3493 0.438748 36.7031 0.34375L63.6572 27.2971C63.5623 26.6513 63.4611 26.0068 63.3235 25.3664Z" fill="#C4C4C4"/>
<path d="M57.8537 13.1396L50.8618 6.14617C49.4925 5.14664 48.0777 4.24539 46.6016 3.4895L60.5121 17.3969C59.7557 15.922 58.852 14.5068 57.8537 13.1396Z" fill="#C4C4C4"/>
</svg>
