<svg width="114" height="111" viewBox="0 0 114 111" fill="none" xmlns="http://www.w3.org/2000/svg">
<path d="M66.0078 107.343L68.986 110.394L113.005 74.801L66.0078 107.343Z" fill="#D9D9D9" stroke="black" stroke-width="0.145278"/>
<path d="M68.9883 110.394L13.4922 101.823L66.0101 107.343L68.9883 110.394Z" fill="#D9D9D9" stroke="black" stroke-width="0.145278"/>
<path d="M113.005 74.801L66.0078 107.343L86.4193 37.4646L113.005 74.801Z" fill="#D9D9D9" stroke="black" stroke-width="0.145278"/>
<path d="M113.016 74.8012L86.4297 37.4648L96.1633 17.5618L113.016 74.8012Z" fill="#D9D9D9" stroke="black" stroke-width="0.145278"/>
<path d="M66.0101 107.343L86.4216 37.4647L13.4922 56.7867L66.0101 107.343Z" fill="#D9D9D9" stroke="black" stroke-width="0.145278"/>
<path d="M66.0101 107.343L13.4922 56.7867V101.823L66.0101 107.343Z" fill="#D9D9D9" stroke="black" stroke-width="0.145278"/>
<path d="M13.4939 101.823V56.7866L1 43.1305L13.4939 101.823Z" fill="#D9D9D9" stroke="black" stroke-width="0.145278"/>
<path d="M96.1575 17.5617L86.4239 37.4647L39.2812 1L96.1575 17.5617Z" fill="#D9D9D9" stroke="black" stroke-width="0.145278"/>
<path d="M13.4939 56.7867L1 43.1306L39.2807 1L13.4939 56.7867Z" stroke="black" stroke-width="0.145278"/>
<path d="M86.4216 37.4647L13.4922 56.7867L39.279 1L86.4216 37.4647Z" fill="#D9D9D9" stroke="black" stroke-width="0.145278"/>
<path d="M66.0078 107.343L68.986 110.394L113.005 74.801L66.0078 107.343Z" fill="url(#paint0_linear_4009_568)" stroke="black" stroke-width="0.145278"/>
<path d="M68.9883 110.394L13.4922 101.823L66.0101 107.343L68.9883 110.394Z" fill="url(#paint1_linear_4009_568)" stroke="black" stroke-width="0.145278"/>
<path d="M113.005 74.801L66.0078 107.343L86.4193 37.4646L113.005 74.801Z" fill="url(#paint2_linear_4009_568)" stroke="black" stroke-width="0.145278"/>
<path d="M113.016 74.8012L86.4297 37.4648L96.1633 17.5618L113.016 74.8012Z" fill="url(#paint3_linear_4009_568)" stroke="black" stroke-width="0.145278"/>
<path d="M66.0101 107.343L86.4216 37.4647L13.4922 56.7867L66.0101 107.343Z" fill="url(#paint4_linear_4009_568)" stroke="black" stroke-width="0.145278"/>
<path d="M66.0101 107.343L13.4922 56.7867V101.823L66.0101 107.343Z" fill="url(#paint5_linear_4009_568)" stroke="black" stroke-width="0.145278"/>
<path d="M13.4939 101.823V56.7866L1 43.1305L13.4939 101.823Z" fill="url(#paint6_linear_4009_568)" stroke="black" stroke-width="0.145278"/>
<path d="M96.1575 17.5617L86.4239 37.4647L39.2812 1L96.1575 17.5617Z" fill="url(#paint7_linear_4009_568)" stroke="black" stroke-width="0.145278"/>
<path d="M13.4939 56.7867L1 43.1306L39.2807 1L13.4939 56.7867Z" fill="url(#paint8_linear_4009_568)" stroke="black" stroke-width="0.145278"/>
<path d="M86.4216 37.4647L13.4922 56.7867L39.279 1L86.4216 37.4647Z" fill="url(#paint9_linear_4009_568)" stroke="black" stroke-width="0.145278"/>
<defs>
<linearGradient id="paint0_linear_4009_568" x1="76.7584" y1="103.857" x2="74.5792" y2="101.096" gradientUnits="userSpaceOnUse">
<stop stop-color="#044064" stop-opacity="0"/>
<stop offset="1" stop-color="#044064" stop-opacity="0.18"/>
</linearGradient>
<linearGradient id="paint1_linear_4009_568" x1="41.2402" y1="104.51" x2="68.9883" y2="110.394" gradientUnits="userSpaceOnUse">
<stop stop-color="#044064"/>
<stop offset="1" stop-color="#044064" stop-opacity="0.61"/>
</linearGradient>
<linearGradient id="paint2_linear_4009_568" x1="101.165" y1="58.094" x2="66.0805" y2="106.036" gradientUnits="userSpaceOnUse">
<stop offset="0.161919" stop-color="white" stop-opacity="0.22"/>
<stop offset="1" stop-color="white" stop-opacity="0"/>
</linearGradient>
<linearGradient id="paint3_linear_4009_568" x1="86.4297" y1="37.3195" x2="100.957" y2="32.598" gradientUnits="userSpaceOnUse">
<stop stop-color="white" stop-opacity="0"/>
<stop offset="1" stop-color="white" stop-opacity="0.08"/>
</linearGradient>
<linearGradient id="paint4_linear_4009_568" x1="86.4216" y1="37.4647" x2="13.4922" y2="56.714" gradientUnits="userSpaceOnUse">
<stop offset="0.472188" stop-color="white" stop-opacity="0.49"/>
<stop offset="1" stop-color="white" stop-opacity="0.05"/>
</linearGradient>
<linearGradient id="paint5_linear_4009_568" x1="13.4922" y1="101.532" x2="45.6712" y2="88.0215" gradientUnits="userSpaceOnUse">
<stop stop-color="#044064" stop-opacity="0.69"/>
<stop offset="1" stop-color="#044064" stop-opacity="0.09"/>
</linearGradient>
<linearGradient id="paint6_linear_4009_568" x1="5.2857" y1="59.6922" x2="13.4939" y2="56.9319" gradientUnits="userSpaceOnUse">
<stop stop-color="#044064" stop-opacity="0.42"/>
<stop offset="1" stop-color="#044064"/>
</linearGradient>
<linearGradient id="paint7_linear_4009_568" x1="50.8308" y1="9.78931" x2="96.1575" y2="17.3437" gradientUnits="userSpaceOnUse">
<stop offset="0.505545" stop-color="white" stop-opacity="0.5"/>
<stop offset="1" stop-color="white" stop-opacity="0"/>
</linearGradient>
<linearGradient id="paint8_linear_4009_568" x1="25.9151" y1="28.8933" x2="1" y2="43.0579" gradientUnits="userSpaceOnUse">
<stop stop-color="#044064" stop-opacity="0.88"/>
<stop offset="1" stop-color="#044064" stop-opacity="0"/>
</linearGradient>
<linearGradient id="paint9_linear_4009_568" x1="21.5551" y1="27.2226" x2="86.4216" y2="37.1015" gradientUnits="userSpaceOnUse">
<stop stop-color="white" stop-opacity="0"/>
<stop offset="0.628031" stop-color="white" stop-opacity="0.32"/>
</linearGradient>
</defs>
</svg>
