<svg width="421" height="411" viewBox="0 0 421 411" fill="none" xmlns="http://www.w3.org/2000/svg">
<path d="M244.312 398.991L255.458 410.409L420.201 277.201L244.312 398.991Z" fill="#D9D9D9" stroke="black" stroke-width="0.543704"/>
<path d="M255.453 410.409L47.7578 378.33L244.307 398.991L255.453 410.409Z" fill="#D9D9D9" stroke="black" stroke-width="0.543704"/>
<path d="M420.201 277.201L244.312 398.991L320.703 137.47L420.201 277.201Z" fill="#D9D9D9" stroke="black" stroke-width="0.543704"/>
<path d="M420.201 277.201L320.703 137.47L357.131 62.9822L420.201 277.201Z" fill="#D9D9D9" stroke="black" stroke-width="0.543704"/>
<path d="M244.307 398.991L320.697 137.47L47.7578 209.782L244.307 398.991Z" fill="#D9D9D9" stroke="black" stroke-width="0.543704"/>
<path d="M244.307 398.991L47.7578 209.782V378.33L244.307 398.991Z" fill="#D9D9D9" stroke="black" stroke-width="0.543704"/>
<path d="M47.7585 378.33V209.782L1 158.674L47.7585 378.33Z" fill="#D9D9D9" stroke="black" stroke-width="0.543704"/>
<path d="M357.126 62.9822L320.697 137.47L144.266 1L357.126 62.9822Z" fill="#D9D9D9" stroke="black" stroke-width="0.543704"/>
<path d="M47.7585 209.782L1 158.674L144.266 1L47.7585 209.782Z" stroke="black" stroke-width="0.543704"/>
<path d="M320.697 137.47L47.7578 209.782L144.265 1L320.697 137.47Z" fill="#D9D9D9" stroke="black" stroke-width="0.543704"/>
<path d="M244.312 398.991L255.458 410.409L420.201 277.201L244.312 398.991Z" fill="url(#paint0_linear_4007_567)" stroke="black" stroke-width="0.543704"/>
<path d="M255.453 410.409L47.7578 378.33L244.307 398.991L255.453 410.409Z" fill="url(#paint1_linear_4007_567)" stroke="black" stroke-width="0.543704"/>
<path d="M420.201 277.201L244.312 398.991L320.703 137.47L420.201 277.201Z" fill="url(#paint2_linear_4007_567)" stroke="black" stroke-width="0.543704"/>
<path d="M420.201 277.201L320.703 137.47L357.131 62.9822L420.201 277.201Z" fill="url(#paint3_linear_4007_567)" stroke="black" stroke-width="0.543704"/>
<path d="M244.307 398.991L320.697 137.47L47.7578 209.782L244.307 398.991Z" fill="url(#paint4_linear_4007_567)" stroke="black" stroke-width="0.543704"/>
<path d="M244.307 398.991L47.7578 209.782V378.33L244.307 398.991Z" fill="url(#paint5_linear_4007_567)" stroke="black" stroke-width="0.543704"/>
<path d="M47.7585 378.33V209.782L1 158.674L47.7585 378.33Z" fill="url(#paint6_linear_4007_567)" stroke="black" stroke-width="0.543704"/>
<path d="M357.126 62.9822L320.697 137.47L144.266 1L357.126 62.9822Z" fill="url(#paint7_linear_4007_567)" stroke="black" stroke-width="0.543704"/>
<path d="M47.7585 209.782L1 158.674L144.266 1L47.7585 209.782Z" fill="url(#paint8_linear_4007_567)" stroke="black" stroke-width="0.543704"/>
<path d="M320.697 137.47L47.7578 209.782L144.265 1L320.697 137.47Z" fill="url(#paint9_linear_4007_567)" stroke="black" stroke-width="0.543704"/>
<defs>
<linearGradient id="paint0_linear_4007_567" x1="284.547" y1="385.942" x2="276.391" y2="375.612" gradientUnits="userSpaceOnUse">
<stop stop-color="#044064" stop-opacity="0"/>
<stop offset="1" stop-color="#044064" stop-opacity="0.18"/>
</linearGradient>
<linearGradient id="paint1_linear_4007_567" x1="151.605" y1="388.389" x2="255.453" y2="410.409" gradientUnits="userSpaceOnUse">
<stop stop-color="#044064"/>
<stop offset="1" stop-color="#044064" stop-opacity="0.61"/>
</linearGradient>
<linearGradient id="paint2_linear_4007_567" x1="375.889" y1="214.676" x2="244.584" y2="394.098" gradientUnits="userSpaceOnUse">
<stop offset="0.161919" stop-color="white" stop-opacity="0.22"/>
<stop offset="1" stop-color="white" stop-opacity="0"/>
</linearGradient>
<linearGradient id="paint3_linear_4007_567" x1="320.703" y1="136.926" x2="375.073" y2="119.256" gradientUnits="userSpaceOnUse">
<stop stop-color="white" stop-opacity="0"/>
<stop offset="1" stop-color="white" stop-opacity="0.08"/>
</linearGradient>
<linearGradient id="paint4_linear_4007_567" x1="320.697" y1="137.47" x2="47.7578" y2="209.51" gradientUnits="userSpaceOnUse">
<stop offset="0.472188" stop-color="white" stop-opacity="0.49"/>
<stop offset="1" stop-color="white" stop-opacity="0.05"/>
</linearGradient>
<linearGradient id="paint5_linear_4007_567" x1="47.7578" y1="377.243" x2="168.188" y2="326.679" gradientUnits="userSpaceOnUse">
<stop stop-color="#044064" stop-opacity="0.69"/>
<stop offset="1" stop-color="#044064" stop-opacity="0.09"/>
</linearGradient>
<linearGradient id="paint6_linear_4007_567" x1="17.0393" y1="220.656" x2="47.7585" y2="210.326" gradientUnits="userSpaceOnUse">
<stop stop-color="#044064" stop-opacity="0.42"/>
<stop offset="1" stop-color="#044064"/>
</linearGradient>
<linearGradient id="paint7_linear_4007_567" x1="187.49" y1="33.8941" x2="357.126" y2="62.1667" gradientUnits="userSpaceOnUse">
<stop offset="0.505545" stop-color="white" stop-opacity="0.5"/>
<stop offset="1" stop-color="white" stop-opacity="0"/>
</linearGradient>
<linearGradient id="paint8_linear_4007_567" x1="94.2452" y1="105.391" x2="0.999997" y2="158.402" gradientUnits="userSpaceOnUse">
<stop stop-color="#044064" stop-opacity="0.88"/>
<stop offset="1" stop-color="#044064" stop-opacity="0"/>
</linearGradient>
<linearGradient id="paint9_linear_4007_567" x1="77.9334" y1="99.1385" x2="320.697" y2="136.11" gradientUnits="userSpaceOnUse">
<stop stop-color="white" stop-opacity="0"/>
<stop offset="0.628031" stop-color="white" stop-opacity="0.32"/>
</linearGradient>
</defs>
</svg>
