<svg width="40" height="26" viewBox="0 0 40 26" fill="none" xmlns="http://www.w3.org/2000/svg">
<path d="M14.0599 11.7346L21.5444 3.8024M14.5104 15.4232L23.0885 6.00879M15.3039 18.061L24.673 8.1533M16.8265 20.6558L25.5344 11.22M18.392 22.4392L25.5344 14.7799M38.6577 12.9999C38.6577 19.8101 33.1369 25.3309 26.3267 25.3309C19.5165 25.3309 13.9958 19.8101 13.9958 12.9999C13.9958 6.1897 19.5165 0.668945 26.3267 0.668945C33.1369 0.668945 38.6577 6.1897 38.6577 12.9999ZM25.6619 12.9999C25.6619 19.8101 20.1412 25.3309 13.331 25.3309C6.52076 25.3309 1 19.8101 1 12.9999C1 6.1897 6.52076 0.668945 13.331 0.668945C20.1412 0.668945 25.6619 6.1897 25.6619 12.9999Z" stroke="white" stroke-width="1.28671"/>
</svg>
