<svg width="28" height="19" viewBox="0 0 28 19" fill="none" xmlns="http://www.w3.org/2000/svg">
<path d="M9.89423 8.74295L15.1057 3.21981M10.208 11.3113L16.1808 4.7561M10.7604 13.1479L17.284 6.2493M11.8206 14.9547L17.8838 8.38458M12.9106 16.1964L17.8838 10.8633M27.0214 9.62394C27.0214 14.3658 23.1774 18.2099 18.4355 18.2099C13.6936 18.2099 9.84958 14.3658 9.84958 9.62394C9.84958 4.88207 13.6936 1.03802 18.4355 1.03802C23.1774 1.03802 27.0214 4.88207 27.0214 9.62394ZM17.9726 9.62394C17.9726 14.3658 14.1286 18.2099 9.38669 18.2099C4.64482 18.2099 0.800781 14.3658 0.800781 9.62394C0.800781 4.88207 4.64482 1.03802 9.38669 1.03802C14.1286 1.03802 17.9726 4.88207 17.9726 9.62394Z" stroke="#444444" stroke-width="0.895922"/>
</svg>
